HIERARCHY
ROOT Root
{
  OFFSET 0.0 0.0 0.0
  CHANNELS 6 Xposition Yposition Zposition Zrotation Yrotation Xrotation
  JOINT Hips
  {
    OFFSET 0.0 100.0 0.0
    CHANNELS 6 Xposition Yposition Zposition Zrotation Yrotation Xrotation
    JOINT Spine1
    {
      OFFSET 5.003913 -0.037094 -0.013727
      CHANNELS 3 Zrotation Yrotation Xrotation
      JOINT Spine2
      {
        OFFSET 7.125363 -1e-06 0.0
        CHANNELS 3 Zrotation Yrotation Xrotation
        JOINT Chest
        {
          OFFSET 7.594027 1e-06 0.0
          CHANNELS 3 Zrotation Yrotation Xrotation
          JOINT Neck1
          {
            OFFSET 26.313086 -0.460272 -0.181672
            CHANNELS 3 Zrotation Yrotation Xrotation
            JOINT Neck2
            {
              OFFSET 8.045911 0.0 0.0
              CHANNELS 3 Zrotation Yrotation Xrotation
              JOINT Head
              {
                OFFSET 6.432774 0.0 0.0
                CHANNELS 3 Zrotation Yrotation Xrotation
                JOINT HeadEnd
                {
                  OFFSET 16.169773 0.06451 0.00362
                  CHANNELS 3 Zrotation Yrotation Xrotation
                }
                JOINT Jaw
                {
                  OFFSET 0.108741 3.12938 0.002639
                  CHANNELS 3 Zrotation Yrotation Xrotation
                }
                JOINT LeftEye
                {
                  OFFSET 4.45173 8.166359 3.206392
                  CHANNELS 3 Zrotation Yrotation Xrotation
                }
                JOINT RightEye
                {
                  OFFSET 4.436895 8.135758 -3.222429
                  CHANNELS 3 Zrotation Yrotation Xrotation
                }
              }
            }
          }
          JOINT LeftShoulder
          {
            OFFSET 23.218927 5.195579 1.621656
            CHANNELS 3 Zrotation Yrotation Xrotation
            JOINT LeftArm
            {
              OFFSET 15.902118 2e-06 -2e-06
              CHANNELS 3 Zrotation Yrotation Xrotation
              JOINT LeftForeArm
              {
                OFFSET 28.739307 0.0 -1e-06
                CHANNELS 3 Zrotation Yrotation Xrotation
                JOINT LeftHand
                {
                  OFFSET 27.093981 -4e-06 0.0
                  CHANNELS 3 Zrotation Yrotation Xrotation
                  JOINT LeftHandThumb1
                  {
                    OFFSET 2.276781 3.380274 0.83384
                    CHANNELS 3 Zrotation Yrotation Xrotation
                    JOINT LeftHandThumb2
                    {
                      OFFSET 4.705309 -1e-06 -1e-06
                      CHANNELS 3 Zrotation Yrotation Xrotation
                      JOINT LeftHandThumb3
                      {
                        OFFSET 2.798515 0.0 3e-06
                        CHANNELS 3 Zrotation Yrotation Xrotation
                        JOINT LeftHandThumbEnd
                        {
                          OFFSET 3.180793 4e-06 -4e-06
                          CHANNELS 3 Zrotation Yrotation Xrotation
                        }
                      }
                    }
                  }
                  JOINT LeftHandIndex1
                  {
                    OFFSET 3.247786 2.352677 0.137192
                    CHANNELS 3 Zrotation Yrotation Xrotation
                    JOINT LeftHandIndex2
                    {
                      OFFSET 6.367095 1e-06 0.0
                      CHANNELS 3 Zrotation Yrotation Xrotation
                      JOINT LeftHandIndex3
                      {
                        OFFSET 3.662364 0.0 0.0
                        CHANNELS 3 Zrotation Yrotation Xrotation
                        JOINT LeftHandIndex4
                        {
                          OFFSET 2.329242 4e-06 -4e-06
                          CHANNELS 3 Zrotation Yrotation Xrotation
                          JOINT LeftHandIndexEnd
                          {
                            OFFSET 2.767823 1e-06 0.0
                            CHANNELS 3 Zrotation Yrotation Xrotation
                          }
                        }
                      }
                    }
                  }
                  JOINT LeftHandMiddle1
                  {
                    OFFSET 3.163612 0.945023 -0.406112
                    CHANNELS 3 Zrotation Yrotation Xrotation
                    JOINT LeftHandMiddle2
                    {
                      OFFSET 6.276789 3e-06 0.0
                      CHANNELS 3 Zrotation Yrotation Xrotation
                      JOINT LeftHandMiddle3
                      {
                        OFFSET 4.35652 -1e-06 4e-06
                        CHANNELS 3 Zrotation Yrotation Xrotation
                        JOINT LeftHandMiddle4
                        {
                          OFFSET 2.996877 0.0 8e-06
                          CHANNELS 3 Zrotation Yrotation Xrotation
                          JOINT LeftHandMiddleEnd
                          {
                            OFFSET 2.323256 3e-06 -4e-06
                            CHANNELS 3 Zrotation Yrotation Xrotation
                          }
                        }
                      }
                    }
                  }
                  JOINT LeftHandRing1
                  {
                    OFFSET 2.882606 -0.309162 0.107445
                    CHANNELS 3 Zrotation Yrotation Xrotation
                    JOINT LeftHandRing2
                    {
                      OFFSET 6.033198 0.0 4e-06
                      CHANNELS 3 Zrotation Yrotation Xrotation
                      JOINT LeftHandRing3
                      {
                        OFFSET 4.350578 3e-06 0.0
                        CHANNELS 3 Zrotation Yrotation Xrotation
                        JOINT LeftHandRing4
                        {
                          OFFSET 2.651321 2e-06 -7e-06
                          CHANNELS 3 Zrotation Yrotation Xrotation
                          JOINT LeftHandRingEnd
                          {
                            OFFSET 1.937663 1e-06 -4e-06
                            CHANNELS 3 Zrotation Yrotation Xrotation
                          }
                        }
                      }
                    }
                  }
                  JOINT LeftHandPinky1
                  {
                    OFFSET 2.865315 -1.525436 0.575687
                    CHANNELS 3 Zrotation Yrotation Xrotation
                    JOINT LeftHandPinky2
                    {
                      OFFSET 5.54936 1e-06 -8e-06
                      CHANNELS 3 Zrotation Yrotation Xrotation
                      JOINT LeftHandPinky3
                      {
                        OFFSET 3.070974 0.0 -4e-06
                        CHANNELS 3 Zrotation Yrotation Xrotation
                        JOINT LeftHandPinky4
                        {
                          OFFSET 1.549672 1e-06 0.0
                          CHANNELS 3 Zrotation Yrotation Xrotation
                          JOINT LeftHandPinkyEnd
                          {
                            OFFSET 1.952123 0.0 0.0
                            CHANNELS 3 Zrotation Yrotation Xrotation
                          }
                        }
                      }
                    }
                  }
                }
              }
            }
          }
          JOINT RightShoulder
          {
            OFFSET 23.161716 5.296122 -1.380114
            CHANNELS 3 Zrotation Yrotation Xrotation
            JOINT RightArm
            {
              OFFSET -16.027195 -2e-06 1.1e-05
              CHANNELS 3 Zrotation Yrotation Xrotation
              JOINT RightForeArm
              {
                OFFSET -28.736639 4e-06 2e-06
                CHANNELS 3 Zrotation Yrotation Xrotation
                JOINT RightHand
                {
                  OFFSET -27.133619 6e-06 0.0
                  CHANNELS 3 Zrotation Yrotation Xrotation
                  JOINT RightHandThumb1
                  {
                    OFFSET -2.274328 -3.351035 -0.83067
                    CHANNELS 3 Zrotation Yrotation Xrotation
                    JOINT RightHandThumb2
                    {
                      OFFSET -4.703594 -3e-06 2e-06
                      CHANNELS 3 Zrotation Yrotation Xrotation
                      JOINT RightHandThumb3
                      {
                        OFFSET -2.794935 -4e-06 -3e-06
                        CHANNELS 3 Zrotation Yrotation Xrotation
                        JOINT RightHandThumbEnd
                        {
                          OFFSET -3.183852 4e-06 1e-06
                          CHANNELS 3 Zrotation Yrotation Xrotation
                        }
                      }
                    }
                  }
                  JOINT RightHandIndex1
                  {
                    OFFSET -3.253496 -2.33755 -0.127667
                    CHANNELS 3 Zrotation Yrotation Xrotation
                    JOINT RightHandIndex2
                    {
                      OFFSET -6.344434 0.0 0.0
                      CHANNELS 3 Zrotation Yrotation Xrotation
                      JOINT RightHandIndex3
                      {
                        OFFSET -3.654871 0.0 -8e-06
                        CHANNELS 3 Zrotation Yrotation Xrotation
                        JOINT RightHandIndex4
                        {
                          OFFSET -2.327586 -1e-06 0.0
                          CHANNELS 3 Zrotation Yrotation Xrotation
                          JOINT RightHandIndexEnd
                          {
                            OFFSET -2.770001 3e-06 8e-06
                            CHANNELS 3 Zrotation Yrotation Xrotation
                          }
                        }
                      }
                    }
                  }
                  JOINT RightHandMiddle1
                  {
                    OFFSET -3.168223 -0.944764 0.411762
                    CHANNELS 3 Zrotation Yrotation Xrotation
                    JOINT RightHandMiddle2
                    {
                      OFFSET -6.266691 -1e-06 -4e-06
                      CHANNELS 3 Zrotation Yrotation Xrotation
                      JOINT RightHandMiddle3
                      {
                        OFFSET -4.348901 0.0 0.0
                        CHANNELS 3 Zrotation Yrotation Xrotation
                        JOINT RightHandMiddle4
                        {
                          OFFSET -3.00024 2e-06 -4e-06
                          CHANNELS 3 Zrotation Yrotation Xrotation
                          JOINT RightHandMiddleEnd
                          {
                            OFFSET -2.321477 -4e-06 -4e-06
                            CHANNELS 3 Zrotation Yrotation Xrotation
                          }
                        }
                      }
                    }
                  }
                  JOINT RightHandRing1
                  {
                    OFFSET -2.885654 0.293261 -0.119232
                    CHANNELS 3 Zrotation Yrotation Xrotation
                    JOINT RightHandRing2
                    {
                      OFFSET -6.032835 -1e-06 -4e-06
                      CHANNELS 3 Zrotation Yrotation Xrotation
                      JOINT RightHandRing3
                      {
                        OFFSET -4.33881 0.0 -4e-06
                        CHANNELS 3 Zrotation Yrotation Xrotation
                        JOINT RightHandRing4
                        {
                          OFFSET -2.654903 -4e-06 -4e-06
                          CHANNELS 3 Zrotation Yrotation Xrotation
                          JOINT RightHandRingEnd
                          {
                            OFFSET -1.935122 0.0 4e-06
                            CHANNELS 3 Zrotation Yrotation Xrotation
                          }
                        }
                      }
                    }
                  }
                  JOINT RightHandPinky1
                  {
                    OFFSET -2.866241 1.503904 -0.60527
                    CHANNELS 3 Zrotation Yrotation Xrotation
                    JOINT RightHandPinky2
                    {
                      OFFSET -5.553177 -2e-06 0.0
                      CHANNELS 3 Zrotation Yrotation Xrotation
                      JOINT RightHandPinky3
                      {
                        OFFSET -3.062664 -1e-06 -4e-06
                        CHANNELS 3 Zrotation Yrotation Xrotation
                        JOINT RightHandPinky4
                        {
                          OFFSET -1.546529 2e-06 4e-06
                          CHANNELS 3 Zrotation Yrotation Xrotation
                          JOINT RightHandPinkyEnd
                          {
                            OFFSET -1.952341 0.0 -4e-06
                            CHANNELS 3 Zrotation Yrotation Xrotation
                          }
                        }
                      }
                    }
                  }
                }
              }
            }
          }
        }
      }
    }
    JOINT LeftLeg
    {
      OFFSET -8.443107 2.567604 10.043214
      CHANNELS 3 Zrotation Yrotation Xrotation
      JOINT LeftShin
      {
        OFFSET 43.229198 1e-06 -1e-06
        CHANNELS 3 Zrotation Yrotation Xrotation
        JOINT LeftFoot
        {
          OFFSET 42.298611 1e-06 1e-06
          CHANNELS 3 Zrotation Yrotation Xrotation
          JOINT LeftToeBase
          {
            OFFSET 14.165858 1e-06 0.0
            CHANNELS 3 Zrotation Yrotation Xrotation
            JOINT LeftToeEnd
            {
              OFFSET 6.7141 -0.234461 0.0
              CHANNELS 3 Zrotation Yrotation Xrotation
            }
          }
        }
      }
    }
    JOINT RightLeg
    {
      OFFSET -8.303923 2.592729 -10.047278
      CHANNELS 3 Zrotation Yrotation Xrotation
      JOINT RightShin
      {
        OFFSET -43.369682 0.0 1e-06
        CHANNELS 3 Zrotation Yrotation Xrotation
        JOINT RightFoot
        {
          OFFSET -42.260784 4e-06 2e-06
          CHANNELS 3 Zrotation Yrotation Xrotation
          JOINT RightToeBase
          {
            OFFSET -14.222245 -2e-06 -1e-06
            CHANNELS 3 Zrotation Yrotation Xrotation
            JOINT RightToeEnd
            {
              OFFSET -6.660062 0.232574 -2e-06
              CHANNELS 3 Zrotation Yrotation Xrotation
            }
          }
        }
      }
    }
  }
}
MOTION
Frames: 4
Frame Time: 0.03333333333333333
0.0 0.0 0.0 0.0 -0.0 0.0 0.211443 100.31266 -3.2197 91.485786 -0.537115 90.20079 -1.235298 -0.570856 -0.131728 -11.422238 -0.594703 -0.230477 15.099688 0.498596 -2.647043 9.145164 0.123455 2.739638 -2.380999 -0.897402 -0.157702 -30.60173 -1.991607 0.209113 5e-06 -0.0 0.0 0.039143 -0.003507 -0.081505 0.171043 -0.055983 -0.085631 0.176752 0.045208 -0.070192 -122.72879 -74.304771 139.10379 34.704514 -54.749161 20.205637 32.844379 -0.428209 -0.13385 -1.164524 25.327831 -1.808757 17.636625 -26.322729 52.411194 -19.466658 -14.395596 29.410385 -2e-06 -8.774819 -0.0 15.846004 -17.959135 5.977009 -0.609777 -1.795653 -3.889328 -4.807087 -11.046808 -2.937851 6e-06 -20.976011 1e-06 -5.019969 -25.033552 -4.03188 5e-06 2e-06 -2e-06 -10.634534 -5.68697 -3.565587 10.573272 -17.922947 -3.113902 4e-06 -13.821205 1e-06 -0.501775 -31.181498 -4.027016 -11.461793 -58.80825 6.882676 -13.982711 -7.150195 -2.875043 13.772726 -8.401491 -3.218243 0.347733 -34.21154 0.771655 -0.963029 -17.733366 2.621021 -2e-06 2e-06 -0.0 -17.346413 -20.095213 -4.201782 21.757553 -1.638375 3.866426 1e-06 -6.338821 -0.0 -1.697586 -22.591738 -6.194006 -0.0 -4e-06 -1e-06 47.660297 -77.060349 148.03212 15.145912 -57.77235 18.258266 51.441067 0.405226 0.396793 8.76517 26.403816 13.466921 22.182112 -20.375891 49.933323 -16.701817 -16.743528 28.476538 -4e-06 -12.690601 1e-06 15.718115 -18.216385 3.033978 -0.105919 -1.513855 -4.275881 -5.039042 -5.612874 -2.953556 4e-06 -11.020527 -4e-06 -6.111295 -15.895332 -3.840475 2e-06 1e-06 0.0 -10.283372 -5.680288 -4.341838 11.028296 -11.302406 -2.372635 -1.384271 -14.238585 -6.32012 -0.625434 -26.924192 -3.827607 -4.529596 -49.500816 -3.715136 -13.708527 -7.363479 -3.720939 18.14115 -14.052739 -3.24268 5e-06 -18.78727 -4e-06 -0.429712 -8.456043 2.555506 -1e-06 -0.0 -1e-06 -15.923536 -20.094492 -5.473588 30.41921 -7.190823 1.735924 3e-06 -8.162925 -1e-06 -1.861905 -22.861469 -6.167945 2e-06 -4e-06 -2e-06 -179.139938 -0.469698 3.526757 7.375294 -0.020889 -0.089966 -77.61528 -0.196698 -4.747752 -3.876502 1.667386 2.238307 -0.999998 0.0 -0.0 1.6374 -5.988158 -15.666436 9.523726 -0.029864 0.103103 -79.816711 6.834115 -4.326843 -3.936476 0.555242 1.665335 -1.000003 0.0 0.0 
0.0 0.0 0.0 0.0 -0.0 0.0 0.246252 100.318024 -3.152519 91.502792 -0.59742 90.098656 -1.249239 -0.600124 -0.175707 -11.412962 -0.576911 -0.176257 15.035943 0.50359 -2.661126 8.445082 0.088366 2.769006 -2.351763 -0.901961 -0.111545 -30.98946 -2.061195 0.301581 5e-06 -0.0 0.0 0.030106 0.003054 -0.05222 0.196421 -0.040249 -0.050919 0.201586 0.042498 -0.046299 -122.783897 -74.406479 139.09671 34.637093 -54.808407 20.186352 33.069786 -0.413404 -0.214644 -0.881757 25.53017 -1.342327 17.636627 -26.322737 52.411198 -19.466663 -14.395598 29.410389 -1e-06 -8.774822 -0.0 15.808276 -17.937201 5.987458 -0.609777 -1.795657 -3.889326 -4.80709 -11.046813 -2.937853 5e-06 -20.976019 1e-06 -5.019971 -25.033562 -4.031881 5e-06 0.0 1e-06 -10.634535 -5.686973 -3.565587 10.573275 -17.922955 -3.113902 3e-06 -13.821213 0.0 -0.501778 -31.181511 -4.02702 -11.477823 -58.866348 6.933296 -13.982717 -7.150201 -2.875044 13.772729 -8.401493 -3.218244 0.347731 -34.211555 0.771654 -0.96303 -17.73337 2.62102 -0.0 1e-06 -0.0 -17.346424 -20.095224 -4.201779 21.757557 -1.638373 3.866426 0.0 -6.338823 -1e-06 -1.697591 -22.591747 -6.194005 -1e-06 -4e-06 -2e-06 47.411816 -77.020515 148.374634 15.504292 -57.722435 17.675909 51.518757 0.393798 0.33793 9.238 26.547684 13.822602 22.18211 -20.375891 49.933319 -16.701817 -16.74353 28.476534 -4e-06 -12.6906 -0.0 15.70031 -18.222788 3.085028 -0.10592 -1.513856 -4.275882 -5.03904 -5.61287 -2.953554 5e-06 -11.020525 -4e-06 -6.111298 -15.895334 -3.840472 1e-06 1e-06 -2e-06 -10.283369 -5.680287 -4.341838 11.028292 -11.302406 -2.372634 -1.384269 -14.238582 -6.320119 -0.625434 -26.924187 -3.827606 -4.526562 -49.607967 -3.64395 -13.708526 -7.363477 -3.720941 18.14115 -14.052739 -3.242676 6e-06 -18.787266 -4e-06 -0.429711 -8.456045 2.555506 -1e-06 -0.0 -0.0 -15.923532 -20.094482 -5.473587 30.419205 -7.190827 1.735923 1e-06 -8.162925 -0.0 -1.861902 -22.861469 -6.167944 2e-06 -4e-06 -1e-06 -179.106964 -0.425502 3.488159 7.293302 -0.016007 -0.049921 -77.597137 -0.216727 -4.808624 -3.880698 1.707174 2.251821 -0.999999 -0.0 0.0 1.578294 -6.042261 -15.650953 9.570856 -0.031576 0.111097 -79.821159 6.889526 -4.301702 -3.964837 0.555769 1.669382 -1.000001 0.0 -0.0 
0.0 0.0 0.0 0.0 -0.0 0.0 0.274052 100.32164 -3.088031 91.530266 -0.669488 90.013496 -1.251414 -0.634136 -0.210488 -11.41352 -0.569663 -0.152622 15.00966 0.509198 -2.666271 7.49681 0.014537 2.825842 -2.370013 -0.911449 -0.085971 -31.409691 -2.134763 0.373452 5e-06 -0.0 0.0 0.021323 0.007218 -0.041871 0.203656 -0.028666 -0.03626 0.208219 0.039067 -0.041092 -122.844795 -74.540535 139.055542 34.404461 -54.832382 20.306181 33.407185 -0.425969 -0.290027 -0.748788 25.578222 -1.210926 17.636633 -26.322731 52.41119 -19.466658 -14.395597 29.410389 -0.0 -8.774821 -4e-06 15.754214 -17.954727 6.003889 -0.609776 -1.795652 -3.889328 -4.807089 -11.046812 -2.93785 5e-06 -20.976019 1e-06 -5.019971 -25.033558 -4.031878 6e-06 0.0 -1e-06 -10.634533 -5.686972 -3.565587 10.573272 -17.922951 -3.1139 4e-06 -13.821206 -1e-06 -0.501775 -31.181505 -4.027019 -11.504035 -58.84618 6.942297 -13.982714 -7.150198 -2.875044 13.772728 -8.401495 -3.218241 0.347734 -34.211544 0.771654 -0.963026 -17.73337 2.621021 -2e-06 2e-06 -0.0 -17.346416 -20.095217 -4.201784 21.757555 -1.638375 3.866429 1e-06 -6.338822 1e-06 -1.697589 -22.591743 -6.194008 -1e-06 -4e-06 -3e-06 46.85421 -77.02903 148.993835 15.663836 -57.660847 17.178835 51.603363 0.416975 0.314896 9.34828 26.517944 13.687282 22.182114 -20.375887 49.933315 -16.701815 -16.743534 28.476532 -3e-06 -12.690602 -0.0 15.652143 -18.177332 3.125739 -0.105921 -1.513855 -4.275881 -5.039038 -5.61287 -2.953556 2e-06 -11.020525 -4e-06 -6.111296 -15.89533 -3.840469 1e-06 1e-06 -0.0 -10.283371 -5.680289 -4.341838 11.028293 -11.302404 -2.372633 -1.38427 -14.238581 -6.320123 -0.625434 -26.924183 -3.827606 -4.520821 -49.61924 -3.595762 -13.708525 -7.363478 -3.720939 18.14115 -14.052739 -3.242677 5e-06 -18.787268 -2e-06 -0.429712 -8.456045 2.555507 -1e-06 -0.0 -1e-06 -15.923536 -20.094482 -5.473581 30.41921 -7.190823 1.735923 1e-06 -8.162922 -1e-06 -1.861903 -22.861464 -6.167945 0.0 -3e-06 -2e-06 -179.077972 -0.379678 3.405581 7.185436 -0.014958 -0.023201 -77.56765 -0.20177 -4.805781 -3.845116 1.717163 2.258285 -0.999999 -0.0 0.0 1.544851 -6.099731 -15.694175 9.54569 -0.030397 0.112581 -79.824135 6.973455 -4.266325 -3.94982 0.561067 1.670948 -1.000001 0.0 0.0 
0.0 0.0 0.0 0.0 -0.0 0.0 0.292398 100.327774 -3.019715 91.547691 -0.750847 89.943771 -1.23815 -0.666918 -0.238523 -11.417083 -0.56341 -0.14108 14.990532 0.524707 -2.657419 6.392084 -0.114724 2.863441 -2.406894 -0.924008 -0.026976 -31.928898 -2.165391 0.448742 6e-06 -0.0 0.0 0.011619 0.008557 -0.043526 0.208037 -0.020214 -0.032563 0.21057 0.033269 -0.049121 -122.959824 -74.686081 139.078064 34.15313 -54.815388 20.545309 33.752544 -0.389406 -0.331894 -0.757861 25.461863 -1.29649 17.636633 -26.322737 52.411198 -19.46666 -14.395602 29.410393 1e-06 -8.774822 -3e-06 15.688776 -17.94619 6.021399 -0.609777 -1.795656 -3.889327 -4.807092 -11.046814 -2.93785 2e-06 -20.976021 2e-06 -5.019975 -25.03356 -4.031881 5e-06 2e-06 2e-06 -10.634537 -5.686975 -3.565588 10.573272 -17.922951 -3.113897 3e-06 -13.821209 1e-06 -0.501779 -31.181505 -4.027017 -11.504975 -58.796146 6.936145 -13.982718 -7.150202 -2.875041 13.772729 -8.401493 -3.218243 0.34773 -34.211559 0.771657 -0.963028 -17.733376 2.621018 -2e-06 4e-06 1e-06 -17.346424 -20.095224 -4.201778 21.757561 -1.638373 3.866427 1e-06 -6.338824 0.0 -1.697592 -22.591747 -6.194006 -1e-06 -4e-06 -2e-06 46.141212 -77.078812 149.735306 15.696484 -57.628799 16.708752 51.605499 0.448158 0.315015 9.184653 26.170343 13.204515 22.182121 -20.375896 49.933323 -16.701811 -16.743532 28.476532 -4e-06 -12.690601 -2e-06 15.594695 -18.110909 3.153324 -0.10592 -1.513857 -4.275884 -5.039039 -5.61287 -2.953556 2e-06 -11.020525 -3e-06 -6.1113 -15.895334 -3.840471 1e-06 1e-06 0.0 -10.283372 -5.680288 -4.341839 11.028294 -11.302406 -2.372632 -1.384269 -14.23858 -6.320121 -0.625434 -26.924191 -3.827601 -4.523484 -49.577587 -3.550605 -13.708529 -7.363476 -3.720938 18.141151 -14.052737 -3.242675 4e-06 -18.78727 -0.0 -0.429714 -8.456046 2.555504 -2e-06 1e-06 -1e-06 -15.923539 -20.094486 -5.473586 30.419222 -7.190827 1.735929 -0.0 -8.162927 1e-06 -1.861905 -22.861467 -6.167942 1e-06 -4e-06 -1e-06 -179.04747 -0.354037 3.261472 7.051151 -0.015619 -0.006597 -77.524742 -0.143912 -4.780629 -3.805914 1.704509 2.257195 -0.999998 -0.0 -0.0 1.542088 -6.128108 -15.730561 9.436324 -0.030906 0.097706 -79.794266 7.083051 -4.225324 -3.932999 0.55762 1.669508 -1.000003 -0.0 -0.0 
